<?xml version="1.0" encoding="utf-8"?>
<!-- Generator: Adobe Illustrator 22.1.0, SVG Export Plug-In . SVG Version: 6.00 Build 0)  -->
<svg version="1.1" id="Layer_1" xmlns="http://www.w3.org/2000/svg" xmlns:xlink="http://www.w3.org/1999/xlink" x="0px" y="0px"
	 viewBox="0 0 512 512" style="enable-background:new 0 0 512 512;"  width="512px" height="512px" xml:space="preserve">
<style type="text/css">
	.st0{fill:#563759;stroke:#563759;}
	.st1{font-family:'ArialMT';}
	.st2{font-size:226.316px;}
</style>
<g id="surface1">
	<path class="st0" d="M327.3,199.8V48.2h1c13.3-0.6,23.6-11.8,23-25.1c-0.5-12.5-10.5-22.5-23-23H185.9c-13.3,0.6-23.6,11.8-23,25.1
		c0.5,12.5,10.5,22.5,23,23h1v151.6L98,342.6L35.4,443.1c-11,17.7-13,34.9-5.6,48.2c7.5,13.3,23,20.7,43.9,20.7h366.7
		c20.9,0,36.5-7.3,43.9-20.7c7.4-13.3,5.4-30.5-5.6-48.2L327.3,199.8z M185.9,34.1c-5.5-0.4-9.7-5.2-9.3-10.7c0.3-5,4.3-9,9.3-9.4
		h142.5c5.5,0.4,9.7,5.2,9.3,10.7c-0.3,5-4.3,9-9.3,9.3H185.9z M313.2,48.2v14.7H200.9V48.2H313.2z M402.6,347.7l64.1,102.9
		c8.3,13,10.3,25.3,5.4,33.8v0c-4.7,8.7-16.1,13.5-31.6,13.5H73.7c-15.6,0-26.8-4.7-31.6-13.5c-4.8-8.8-2.9-20.7,5.3-34l61.3-98.3
		l11.8-19.1l79.4-127.5c0.7-1.1,1.1-2.4,1.1-3.7v-125h112.3v124.9c0,1.3,0.4,2.6,1.1,3.7l80.9,129.9L402.6,347.7z"/>
</g>
<text transform="matrix(1 0 0 1 269.2031 452.6328)" class="st1 st2">4</text>
</svg>
